<svg width="175" height="38" viewBox="0 0 175 38" fill="none" xmlns="http://www.w3.org/2000/svg">
<path d="M136.489 24.9969H174.489V37.9569H136.489V24.9969ZM133.489 23.3969C133.489 14.1569 134.569 11.3569 137.489 8.75692H133.689V1.39691H161.649V8.75692H148.049C147.489 9.35692 147.009 9.91692 146.569 10.5169C148.489 10.0769 150.329 9.87691 152.329 9.87691C159.289 9.87691 161.849 11.6769 161.849 16.3169V23.3969L151.649 23.7969V19.7969C151.649 18.4369 151.209 17.6369 148.769 17.6369C147.289 17.6369 145.609 17.9169 143.849 18.5569C143.729 20.0369 143.689 21.7569 143.689 23.7969L133.489 23.3969ZM147.289 32.5569H163.689V30.1969H147.289V32.5569ZM163.289 23.9969V0.836914H174.489V23.9969H163.289Z" fill="#EE6C4D"/>
<path d="M119.085 0.836914H129.885V37.9569H119.085V29.9969H116.805V20.7969H119.085V15.9969H116.805V6.79692H119.085V0.836914ZM88.6846 23.0769V14.4769H104.125C104.445 13.4369 104.605 12.4769 104.605 11.7569C104.605 10.7169 103.965 10.2369 102.605 10.2369C99.9646 10.2369 99.0446 10.3169 89.8846 10.8369L89.4846 2.39692C94.1646 1.83692 99.1246 1.51692 103.485 1.51692C112.605 1.51692 115.405 3.27692 115.405 9.03692C115.405 10.6769 115.205 12.5169 114.765 14.4769H115.805V23.0769H100.645C100.525 23.8369 100.485 24.5569 100.485 25.2369C100.485 27.0769 100.925 27.5169 102.845 27.5169C105.685 27.5169 108.525 27.2369 116.005 26.5969L116.405 35.0769C111.085 35.9569 106.445 36.4769 101.805 36.4769C93.0446 36.4769 89.4846 34.1169 89.4846 28.3569C89.4846 26.6769 89.6446 24.8369 89.9646 23.0769H88.6846Z" fill="white"/>
<path d="M73.6797 0.836914H84.4797V13.1969H87.2797V23.1969H84.4797V37.9569H73.6797V0.836914ZM43.6797 2.27691C53.1997 1.27692 62.0797 1.27692 71.5997 2.27691L71.1997 11.7169C66.3197 11.3169 61.7997 11.1169 57.2397 11.1169C56.7597 15.4769 56.4797 19.5169 56.4797 22.9569C56.4797 25.5569 57.1597 26.2369 59.9597 26.2369C63.4797 26.2369 67.1597 25.8369 71.5997 25.3169L71.9997 35.3969C67.6397 36.0369 63.0397 36.4769 57.5997 36.4769C48.1597 36.4769 44.8797 33.2369 44.8797 23.7969C44.8797 19.6369 45.1997 16.1569 45.8397 11.5569C45.2397 11.6369 44.6797 11.6769 44.0797 11.7169L43.6797 2.27691Z" fill="white"/>
<path d="M30.0749 0.836914H41.4749V37.9569H30.0749V0.836914ZM0.274902 27.0769C14.2749 25.5169 16.8349 23.5169 16.8349 16.1969C16.8349 13.5169 15.5149 12.1569 12.7549 12.1569C10.5149 12.1569 7.9149 12.3969 1.8749 13.1169L0.674902 3.11692C6.7549 1.91691 12.0749 1.31691 16.3149 1.31691C24.7549 1.31691 28.2349 5.27691 28.2349 14.7969C28.2349 30.2369 20.0349 37.0769 1.4749 37.0769L0.274902 27.0769Z" fill="white"/>
</svg>
