<svg width="32" height="32" viewBox="0 0 32 32" fill="none" xmlns="http://www.w3.org/2000/svg">
<rect width="32" height="32" fill="#293241"/>
<path d="M13.0622 7.4375H15.5248V15.4559H13.0622V7.4375ZM6.625 13.1057C9.64919 12.7687 10.2022 12.3367 10.2022 10.7555C10.2022 10.1766 9.91705 9.88278 9.32085 9.88278C8.83698 9.88278 8.27535 9.93462 6.97062 10.0902L6.71141 7.93001C8.02477 7.6708 9.17396 7.54119 10.0899 7.54119C11.913 7.54119 12.6647 8.3966 12.6647 10.4531C12.6647 13.7883 10.8934 15.2658 6.88422 15.2658L6.625 13.1057Z" fill="white"/>
<path d="M23.0205 7.4375H25.3534V10.1074H25.9582V12.2676H25.3534V15.4559H23.0205V7.4375ZM16.54 7.74856C18.5965 7.53255 20.5147 7.53255 22.5711 7.74856L22.4847 9.78773C21.4306 9.70133 20.4542 9.65812 19.4692 9.65812C19.3655 10.5999 19.305 11.4726 19.305 12.2157C19.305 12.7774 19.4519 12.9243 20.0567 12.9243C20.8171 12.9243 21.612 12.8378 22.5711 12.7255L22.6576 14.9029C21.7157 15.0412 20.7221 15.1362 19.547 15.1362C17.5078 15.1362 16.7993 14.4363 16.7993 12.3972C16.7993 11.4986 16.8684 10.7468 17.0066 9.75317C16.877 9.77045 16.7561 9.77909 16.6264 9.78773L16.54 7.74856Z" fill="white"/>
<path d="M13.1918 16.5352H15.5248V24.5536H13.1918V22.8341H12.6993V20.8468H13.1918V19.8099H12.6993V17.8226H13.1918V16.5352ZM6.625 21.3393V19.4816H9.96025C10.0294 19.2569 10.0639 19.0496 10.0639 18.894C10.0639 18.6694 9.92569 18.5657 9.63191 18.5657C9.06164 18.5657 8.8629 18.583 6.88422 18.6953L6.79781 16.8721C7.80875 16.7512 8.88018 16.682 9.82201 16.682C11.7921 16.682 12.3969 17.0622 12.3969 18.3065C12.3969 18.6607 12.3537 19.0582 12.2586 19.4816H12.4833V21.3393H9.20853C9.1826 21.5035 9.17396 21.659 9.17396 21.8059C9.17396 22.2034 9.26901 22.2984 9.68376 22.2984C10.2972 22.2984 10.9107 22.2379 12.5265 22.0997L12.6129 23.9315C11.4637 24.1216 10.4614 24.2339 9.4591 24.2339C7.56682 24.2339 6.79781 23.7241 6.79781 22.4799C6.79781 22.117 6.83237 21.7195 6.9015 21.3393H6.625Z" fill="white"/>
<path d="M17.1881 21.7541H25.3966V24.5536H17.1881V21.7541ZM16.54 21.4084C16.54 19.4125 16.7733 18.8076 17.4041 18.246H16.5832V16.6561H22.623V18.246H19.6852C19.5642 18.3756 19.4605 18.4966 19.3655 18.6262C19.7802 18.5311 20.1777 18.4879 20.6097 18.4879C22.1132 18.4879 22.6662 18.8767 22.6662 19.8791V21.4084L20.4629 21.4948V20.6308C20.4629 20.337 20.3678 20.1642 19.8407 20.1642C19.521 20.1642 19.1581 20.2247 18.7779 20.3629C18.752 20.6826 18.7434 21.0542 18.7434 21.4948L16.54 21.4084ZM19.521 23.3871H23.0637V22.8773H19.521V23.3871ZM22.9773 21.538V16.5352H25.3966V21.538H22.9773Z" fill="#EE6C4D"/>
</svg>
